<svg xmlns="http://www.w3.org/2000/svg" version="1.1" xmlns:xlink="http://www.w3.org/1999/xlink" xmlns:svgjs="http://svgjs.dev/svgjs" width="2560" height="1024" preserveAspectRatio="none" viewBox="0 0 2560 1024"><g mask="url(&quot;#SvgjsMask1288&quot;)" fill="none"><path d="M2645.333333333333 1024L0 1024 L0 352.69Q107.3 332, 128 439.3Q211.94 395.24, 256 479.18Q267.49 277.33, 469.3333333333333 288.82Q588.08 194.23, 682.6666666666666 312.98Q800.99 303.3, 810.6666666666666 421.62Q903.48 386.44, 938.6666666666666 479.25Q959.11 371.69, 1066.6666666666665 392.13Q1196.5 308.63, 1279.9999999999998 438.47Q1391.95 422.42, 1407.9999999999998 534.37Q1456.84 369.87, 1621.333333333333 418.71Q1765 349.04, 1834.6666666666663 492.71Q1910.04 354.75, 2047.9999999999995 430.13Q2092.59 346.72, 2175.9999999999995 391.31Q2253.88 255.85, 2389.333333333333 333.73Q2465.04 281.44, 2517.333333333333 357.15Q2627.72 339.53, 2645.333333333333 449.92z" fill="rgba(103, 134, 130, 1)"></path><path d="M2645.3333333333335 1024L0 1024 L0 606.72Q133.09 526.47, 213.33333333333331 659.56Q267.99 586.21, 341.3333333333333 640.87Q373.67 459.87, 554.6666666666666 492.21Q680.29 404.5, 768 530.12Q804.17 438.29, 896 474.46Q972.39 422.85, 1024 499.24Q1185.27 447.18, 1237.3333333333333 608.45Q1268.61 511.73, 1365.3333333333333 543.01Q1422.41 472.09, 1493.3333333333333 529.16Q1668.53 491.02, 1706.6666666666665 666.22Q1741.46 573.01, 1834.6666666666665 607.81Q1913.2 558.35, 1962.6666666666665 636.88Q1973.66 519.88, 2090.6666666666665 530.87Q2172.71 399.58, 2304 481.63Q2411.41 461.04, 2432 568.44Q2520.49 443.6, 2645.3333333333335 532.09z" fill="rgba(144, 165, 150, 1)"></path><path d="M2688 1024L0 1024 L0 703.6Q102.83 593.09, 213.33333333333331 695.92Q336.66 691.25, 341.3333333333333 814.58Q361.04 706.29, 469.3333333333333 725.99Q545.46 588.78, 682.6666666666666 664.91Q755.72 609.96, 810.6666666666666 683.01Q891.89 636.23, 938.6666666666666 717.45Q1022.49 673.28, 1066.6666666666665 757.1Q1192.23 669.33, 1279.9999999999998 794.89Q1386.03 772.92, 1407.9999999999998 878.95Q1457.03 799.99, 1535.9999999999998 849.02Q1531.64 716.66, 1663.9999999999998 712.31Q1757.16 592.14, 1877.333333333333 685.3Q1990.37 670.34, 2005.333333333333 783.38Q2031.94 681.99, 2133.333333333333 708.59Q2228.69 590.61, 2346.6666666666665 685.97Q2431.73 643.03, 2474.6666666666665 728.09Q2603.85 643.94, 2688 773.12z" fill="rgba(189, 195, 175, 1)"></path><path d="M2730.666666666667 1024L0 1024 L0 1076.74Q-50.2 898.54, 128 848.33Q323.99 830.99, 341.3333333333333 1026.98Q364.04 921.69, 469.3333333333333 944.4Q508.2 855.26, 597.3333333333333 894.13Q693.81 862.61, 725.3333333333333 959.09Q853.47 959.23, 853.3333333333333 1087.37Q851.53 872.24, 1066.6666666666665 870.44Q1122.55 798.33, 1194.6666666666665 854.21Q1296.33 742.54, 1407.9999999999998 844.2Q1496.05 804.25, 1535.9999999999998 892.3Q1685.35 913.65, 1663.9999999999998 1063.01Q1635.57 906.59, 1791.9999999999998 878.16Q1845.61 803.77, 1919.9999999999998 857.38Q2007.38 816.76, 2047.9999999999998 904.14Q2095.4 823.54, 2176 870.94Q2273.36 754.97, 2389.3333333333335 852.33Q2515.05 850.05, 2517.3333333333335 975.76Q2594.97 840.07, 2730.666666666667 917.71z" fill="rgba(235, 226, 207, 1)"></path></g><defs><mask id="SvgjsMask1288"><rect width="2560" height="1024" fill="#ffffff"></rect></mask></defs></svg>